<svg width="93" height="21" viewBox="0 0 93 21" fill="none" xmlns="http://www.w3.org/2000/svg">
<path d="M44.8047 13.014C44.8047 13.8942 44.6953 14.6963 44.4766 15.4203C44.2578 16.139 43.9245 16.7588 43.4766 17.2797C43.0339 17.8005 42.4714 18.2015 41.7891 18.4828C41.1068 18.7588 40.2995 18.8969 39.3672 18.8969C38.4349 18.8969 37.6276 18.7588 36.9453 18.4828C36.263 18.2015 35.6979 17.8005 35.25 17.2797C34.8073 16.7588 34.4766 16.1364 34.2578 15.4125C34.0391 14.6885 33.9297 13.8838 33.9297 12.9984C33.9297 11.8161 34.1224 10.7875 34.5078 9.91248C34.8984 9.03227 35.4974 8.34998 36.3047 7.8656C37.112 7.38123 38.138 7.13904 39.3828 7.13904C40.6224 7.13904 41.6406 7.38123 42.4375 7.8656C43.2396 8.34998 43.8333 9.03227 44.2188 9.91248C44.6094 10.7927 44.8047 11.8265 44.8047 13.014ZM36.4688 13.014C36.4688 13.8109 36.5677 14.4984 36.7656 15.0765C36.9688 15.6495 37.2839 16.0922 37.7109 16.4047C38.138 16.712 38.6901 16.8656 39.3672 16.8656C40.0547 16.8656 40.612 16.712 41.0391 16.4047C41.4661 16.0922 41.776 15.6495 41.9688 15.0765C42.1667 14.4984 42.2656 13.8109 42.2656 13.014C42.2656 11.8161 42.0417 10.8734 41.5938 10.1859C41.1458 9.49841 40.4089 9.15466 39.3828 9.15466C38.7005 9.15466 38.1432 9.31091 37.7109 9.62341C37.2839 9.9307 36.9688 10.3734 36.7656 10.9515C36.5677 11.5245 36.4688 12.212 36.4688 13.014ZM54.2109 11.7953H51.3516V18.7406H48.9688V11.7953H46.1016V10.0062H54.2109V11.7953ZM59.4453 9.84216C60.2526 9.84216 60.9479 9.99841 61.5312 10.3109C62.1146 10.6182 62.5651 11.0661 62.8828 11.6547C63.2005 12.2432 63.3594 12.962 63.3594 13.8109V14.9672H57.7266C57.7526 15.639 57.9531 16.1677 58.3281 16.5531C58.7083 16.9333 59.2344 17.1234 59.9062 17.1234C60.4635 17.1234 60.974 17.0661 61.4375 16.9515C61.901 16.837 62.3776 16.6651 62.8672 16.4359V18.2797C62.4349 18.4932 61.9818 18.6495 61.5078 18.7484C61.0391 18.8474 60.4688 18.8969 59.7969 18.8969C58.9219 18.8969 58.1458 18.7354 57.4688 18.4125C56.7969 18.0896 56.2682 17.5974 55.8828 16.9359C55.5026 16.2745 55.3125 15.4411 55.3125 14.4359C55.3125 13.4151 55.4844 12.5661 55.8281 11.889C56.1771 11.2067 56.6615 10.6963 57.2812 10.3578C57.901 10.014 58.6224 9.84216 59.4453 9.84216ZM59.4609 11.5375C58.9974 11.5375 58.612 11.6859 58.3047 11.9828C58.0026 12.2797 57.8281 12.7458 57.7812 13.3812H61.125C61.1198 13.0271 61.0547 12.712 60.9297 12.4359C60.8099 12.1599 60.6276 11.9411 60.3828 11.7797C60.1432 11.6182 59.8359 11.5375 59.4609 11.5375ZM73.1172 18.7406H70.7344V11.7953H68.5391C68.4297 13.0765 68.2995 14.1677 68.1484 15.0687C67.9974 15.9698 67.8047 16.7041 67.5703 17.2719C67.3359 17.8344 67.0443 18.2458 66.6953 18.5062C66.3464 18.7666 65.9167 18.8969 65.4062 18.8969C65.125 18.8969 64.8724 18.876 64.6484 18.8344C64.4297 18.7927 64.2292 18.7302 64.0469 18.6469V16.7406C64.1615 16.7875 64.2839 16.8265 64.4141 16.8578C64.5443 16.8838 64.6771 16.8969 64.8125 16.8969C64.9635 16.8969 65.1068 16.837 65.2422 16.7172C65.3776 16.5974 65.5052 16.3916 65.625 16.1C65.7448 15.8031 65.8568 15.3942 65.9609 14.8734C66.0703 14.3526 66.1693 13.6937 66.2578 12.8969C66.3464 12.1 66.4297 11.1364 66.5078 10.0062H73.1172V18.7406ZM77.9297 10.0062V13.4594C77.9297 13.6364 77.9219 13.8604 77.9062 14.1312C77.8958 14.3969 77.8802 14.6677 77.8594 14.9437C77.8385 15.2198 77.8177 15.4672 77.7969 15.6859C77.776 15.9047 77.7604 16.0531 77.75 16.1312L81.7812 10.0062H84.6484V18.7406H82.3438V15.2562C82.3438 14.9698 82.3542 14.6547 82.375 14.3109C82.3958 13.962 82.4193 13.6338 82.4453 13.3265C82.4714 13.0192 82.4896 12.7875 82.5 12.6312L78.4844 18.7406H75.625V10.0062H77.9297Z" fill="#24AB70"/>
<path d="M13.5748 0.308533V19.3085H19.2871V4.53091L13.5748 0.308533ZM11.3123 1.97552V19.3085H12.5001V1.0867L11.3123 1.97552ZM9.04988 19.3085H10.2375V2.80881L9.04988 3.64195V19.3085ZM6.78734 19.3085H7.97511V4.47566L6.78734 5.36448V19.3085ZM20.3617 8.80869V19.3085H26.0752V13.0308L20.3617 8.80869ZM4.52479 10.4754V19.3085H5.71272V9.64198L4.52479 10.4754ZM2.2624 19.3085H3.45017V11.3088L2.2624 12.1423V19.3085ZM0 19.3085H1.18778V12.9752L0 13.8642V19.3085Z" fill="#24AB70"/>
</svg>
