<svg width="16" height="19" viewBox="0 0 16 19" fill="none" xmlns="http://www.w3.org/2000/svg">
<path d="M8 9.51387e-09C5.89206 -0.00010012 3.86926 0.790168 2.37124 2.19904C0.873231 3.60792 0.0210794 5.52154 0 7.52398C0 12.73 7.05 18.5249 7.35 18.7719C7.53113 18.9191 7.76165 19 8 19C8.23835 19 8.46887 18.9191 8.65 18.7719C9 18.5249 16 12.73 16 7.52398C15.9789 5.52154 15.1268 3.60792 13.6288 2.19904C12.1307 0.790168 10.1079 -0.00010012 8 9.51387e-09ZM8 10.45C7.30777 10.45 6.63108 10.255 6.0555 9.8896C5.47993 9.52425 5.03133 9.00496 4.76642 8.3974C4.50151 7.78983 4.4322 7.12129 4.56725 6.4763C4.7023 5.83132 5.03564 5.23886 5.52513 4.77385C6.01461 4.30885 6.63825 3.99217 7.31718 3.86388C7.99612 3.73558 8.69985 3.80143 9.33939 4.05309C9.97893 4.30475 10.5256 4.73092 10.9101 5.27771C11.2947 5.8245 11.5 6.46736 11.5 7.12498C11.5 8.00682 11.1313 8.85254 10.4749 9.4761C9.8185 10.0997 8.92826 10.45 8 10.45Z" fill="#24AB70"/>
</svg>
