<svg width="18" height="19" viewBox="0 0 18 19" fill="none" xmlns="http://www.w3.org/2000/svg">
<path d="M9.00008 8.63636C10.0306 8.63636 11.038 8.3831 11.8949 7.90861C12.7518 7.43412 13.4196 6.75972 13.814 5.97067C14.2083 5.18163 14.3115 4.31339 14.1105 3.47574C13.9094 2.6381 13.4132 1.86867 12.6845 1.26477C11.9558 0.660859 11.0273 0.249592 10.0166 0.0829745C9.00586 -0.0836433 7.95819 0.00187098 7.00609 0.328704C6.05399 0.655536 5.24022 1.20901 4.66768 1.91913C4.09514 2.62925 3.78955 3.46412 3.78955 4.31818C3.78955 5.46343 4.33851 6.56178 5.31568 7.37159C6.29284 8.18141 7.61816 8.63636 9.00008 8.63636Z" fill="#24AB70"/>
<path d="M16.7143 19C17.0553 19 17.3823 18.8863 17.6234 18.6838C17.8645 18.4814 18 18.2068 18 17.9205C18 15.9163 17.0518 13.9942 15.364 12.577C13.6761 11.1598 11.3869 10.3636 9 10.3636C6.61305 10.3636 4.32387 11.1598 2.63604 12.577C0.948211 13.9942 3.55683e-08 15.9163 0 17.9205C0 18.2068 0.135459 18.4814 0.376577 18.6838C0.617695 18.8863 0.944722 19 1.28571 19H16.7143Z" fill="#24AB70"/>
</svg>
